<?xml version="1.0" encoding="UTF-8" standalone="no"?>
<!-- Created with Inkscape (http://www.inkscape.org/) -->

<svg
   width="512"
   height="512"
   viewBox="0 0 512 512"
   version="1.1"
   id="svg1"
   inkscape:version="1.4.2 (f4327f4, 2025-05-13)"
   sodipodi:docname="front-logo-paths.svg"
   inkscape:export-filename="front-logo.svg"
   inkscape:export-xdpi="648.11615"
   inkscape:export-ydpi="648.11615"
   xmlns:inkscape="http://www.inkscape.org/namespaces/inkscape"
   xmlns:sodipodi="http://sodipodi.sourceforge.net/DTD/sodipodi-0.dtd"
   xmlns:xlink="http://www.w3.org/1999/xlink"
   xmlns="http://www.w3.org/2000/svg"
   xmlns:svg="http://www.w3.org/2000/svg">
  <sodipodi:namedview
     id="namedview1"
     pagecolor="#505050"
     bordercolor="#ffffff"
     borderopacity="1"
     inkscape:showpageshadow="0"
     inkscape:pageopacity="0"
     inkscape:pagecheckerboard="1"
     inkscape:deskcolor="#505050"
     inkscape:document-units="px"
     inkscape:zoom="0.38916016"
     inkscape:cx="164.45671"
     inkscape:cy="445.83187"
     inkscape:window-width="2560"
     inkscape:window-height="1369"
     inkscape:window-x="1912"
     inkscape:window-y="-8"
     inkscape:window-maximized="1"
     inkscape:current-layer="layer1" />
  <defs
     id="defs1">
    <linearGradient
       id="linearGradient1"
       inkscape:collect="always">
      <stop
         style="stop-color:#4ac1ff;stop-opacity:1;"
         offset="0"
         id="stop2" />
      <stop
         style="stop-color:#006eb8;stop-opacity:1;"
         offset="1"
         id="stop1" />
    </linearGradient>
    <linearGradient
       inkscape:collect="always"
       xlink:href="#linearGradient108"
       id="linearGradient109"
       x1="289.32422"
       y1="226.57227"
       x2="335.53406"
       y2="297.9682"
       gradientUnits="userSpaceOnUse"
       gradientTransform="matrix(6.7511725,0,0,6.7511725,-1817.7133,-1517.4681)" />
    <linearGradient
       id="linearGradient108"
       inkscape:collect="always">
      <stop
         style="stop-color:#143920;stop-opacity:1;"
         offset="0"
         id="stop109" />
      <stop
         style="stop-color:#1d2b63;stop-opacity:1;"
         offset="1"
         id="stop108" />
    </linearGradient>
    <linearGradient
       inkscape:collect="always"
       xlink:href="#linearGradient1"
       id="linearGradient2"
       x1="-955.90466"
       y1="43.500244"
       x2="-41.114197"
       y2="933.01624"
       gradientUnits="userSpaceOnUse"
       gradientTransform="translate(-574.16866,-85.21419)" />
  </defs>
  <g
     inkscape:label="Calque 1"
     inkscape:groupmode="layer"
     id="layer1">
    <rect
       style="fill:url(#linearGradient2);fill-opacity:1;stroke-width:10;stroke-linecap:square;stroke-linejoin:round;paint-order:stroke fill markers"
       id="rect1"
       width="914.79047"
       height="889.51599"
       x="-1530.0734"
       y="-41.713947"
       inkscape:export-filename="back-logo.svg"
       inkscape:export-xdpi="648.11615"
       inkscape:export-ydpi="648.11615" />
    <path
       id="path107"
       style="baseline-shift:baseline;display:inline;overflow:visible;vector-effect:none;fill:url(#linearGradient109);fill-opacity:1;stroke-width:0.999997;stroke-linejoin:round;stroke-dashoffset:3;paint-order:stroke fill markers;enable-background:accumulate;stop-color:#000000"
       d="M 293.54448,0.0029005 C 253.663,-7.4512898e-4 214.18741,1.1260931 186.80473,2.389575 180.77438,2.6683984 175.32692,2.9492472 170.55972,3.2334716 h -0.0135 -0.0135 c -5.74741,0.3436346 -10.44683,0.6835562 -14.1485,1.0284736 -1.85076,0.1721549 -3.42298,0.3328328 -5.05015,0.5670985 -0.81358,0.1167953 -1.62689,0.2389915 -2.78222,0.4881097 -1.1554,0.2491183 -1.94441,-0.1188206 -6.72484,2.4262364 -5.25869,2.7993732 -4.84309,3.2230772 -6.26327,4.4172922 -1.42018,1.194147 -2.92994,2.524466 -4.66783,4.100797 -3.47577,3.152595 -7.81549,7.233206 -12.7903,11.999129 C 106.46706,39.410642 91.470743,54.239728 77.928229,68.20068 64.385647,82.161632 52.913717,94.24029 45.754638,103.9476 c -7.626799,10.34165 -11.118911,15.27885 -13.805607,23.00934 -0.861585,2.4791 -1.561074,6.50429 -1.133995,11.43217 l -0.276798,6.75117 -0.0135,0.0135 -4.509513,109.70656 c -0.02025,0.57992 -0.02025,1.16059 0,1.74058 l 3.006365,91.66824 0.79117,24.34115 c 0.169454,5.34227 2.144915,10.46931 5.603945,14.54405 l 73.722335,86.7367 c 3.50547,1.91308 7.43864,2.90658 11.43216,2.88774 1.38581,1.90208 3.04795,3.58643 4.93146,4.99742 l -8.373,-2.37344 c 3.36343,1.83126 15.46848,8.34411 29.82647,14.92644 14.35799,6.58233 29.52139,13.51976 46.13738,15.54613 26.78575,3.26655 70.4231,1.79331 121.04643,1.79331 53.34851,0 117.11704,-7.89826 117.11704,-7.8984 12.6353,-1.54453 21.77686,-12.8198 20.67547,-25.50147 l -0.17148,-1.91193 c 0.84916,-0.2363 1.67173,-0.38212 2.54486,-0.65959 2.84683,-0.9048 5.11995,-0.4287 11.88051,-6.22371 8.34755,-7.15489 7.26352,-10.17179 8.03018,-12.63212 0.76659,-2.46033 1.14432,-4.35707 1.50315,-6.36878 0.71778,-4.0233 1.21021,-8.3296 1.67463,-13.26498 0.91282,-9.70035 1.59401,-21.65911 2.1229,-33.78226 0.13705,-0.26532 0.2687,-0.53401 0.39562,-0.80433 0.61841,-13.68483 0.62651,-25.79502 0.36929,-35.60184 0.0135,0.31933 0.0405,0.54617 0.0675,0.61976 v 0.0135 h 0.0135 0.0135 v -0.0135 c 0.002,-0.005 0.0135,-0.0337 0.0135,-0.0405 0.10329,-0.38819 0.20996,-2.6341 -0.0135,-6.7775 -0.0824,-1.52948 -0.17283,-4.27795 -0.22414,-7.70059 h -0.0135 v -0.0135 c -0.13367,-8.88238 -0.10194,-22.67705 -0.0675,-38.55554 0.0965,-41.40089 0.48339,-95.95293 -2.29438,-125.22635 v -0.054 c -0.41858,-4.51039 -0.90675,-8.44011 -1.6878,-12.30239 -1.43097,-7.07665 -3.3874,-26.87331 -5.23479,-45.47813 4.37463,-3.2596 7.48678,-7.93242 8.80819,-13.22548 l 0.61976,-8.94004 c 0.26869,-3.87969 -0.42465,-7.7658 -2.01746,-11.313475 l -5.63041,-12.539763 c -1.34301,-2.998534 -3.29653,-5.684082 -5.73586,-7.885167 l -1.89877,-1.700958 c -0.56575,-4.843021 -1.11374,-10.057829 -1.72735,-14.082541 -1.01403,-6.651525 -0.41587,-9.951026 -4.9447,-19.106358 v -0.0135 c -0.70887,-1.431653 -1.49275,-2.906177 -2.34704,-4.404059 -0.12692,-0.06076 -0.25452,-0.115445 -0.38212,-0.17148 -7.35567,-12.59096 -16.54834,-22.574256 -16.54834,-22.574256 -3.2463,-3.592502 -7.51776,-6.1010348 -12.2365,-7.1863533 -3.20525,-0.7338525 -6.54668,-1.3710957 -10.04763,-1.951494 -0.0405,0.013502 -0.079,0.027005 -0.11882,0.040507 -0.0203,-0.020253 -0.0338,-0.047258 -0.054,-0.067512 -0.007,-0.00122 -0.35106,-0.054009 -1.00215,-0.1579775 C 411.63963,5.5766685 407.48725,5.0142959 403.13066,4.5095782 373.40146,1.06513 333.42412,0.00371064 293.54279,-2.5000002e-6 Z m -152.3629,19.8711315 0.054,0.0135 c -0.0337,-0.0016 -0.0473,0.001 -0.054,0 z M 479.43909,359.17324 h 0.027 c -0.006,0.027 -0.007,0.0135 -0.0135,0.0405 h -0.0135 z"
       inkscape:export-filename="C:\Users\Aero\Desktop\Dropbox\Doocode\logo2.svg"
       inkscape:export-xdpi="648.11615"
       inkscape:export-ydpi="648.11615"
       sodipodi:nodetypes="sccccssssssssssccccccccccccssscccssssscccccccccsccscccscccccccsccccccccccssccccccccc" />
    <path
       d="m 426.38804,457.4641 c -4.3782,0.69504 -7.56874,1.12083 -7.56874,1.12083 -60.28858,3.09211 -133.267,3.7463 -206.55685,4.33817 l -83.84902,-4.27221 c 6.15146,3.34926 47.00402,25.26694 67.52489,27.76947 22.22715,2.71059 67.2252,1.62183 118.18508,1.62183 50.95994,0 114.2557,-7.72692 114.2557,-7.72692 z"
       style="fill:#1b1c20;fill-opacity:1;stroke-width:3;stroke-linejoin:round;stroke-dasharray:3, 3;stroke-dashoffset:3;paint-order:stroke fill markers"
       id="path6" />
    <path
       d="m 127.14664,458.58959 -2.03062,-53.5611 c -3.74103,-1.11374 -6.01273,-2.08334 -6.01273,-2.08334 l -66.470085,-55.44664 0.79117,24.35431 z"
       style="fill:#8facb3;fill-opacity:1;stroke-width:3;stroke-linejoin:round;stroke-dasharray:3, 3;stroke-dashoffset:3;paint-order:stroke fill markers"
       id="path7"
       sodipodi:nodetypes="cccccc" />
    <path
       d="m 140.17525,43.506511 c -2.36007,-0.09047 -4.3121,0.812098 -5.73586,1.819643 -22.79709,21.840111 -59.472361,58.821006 -69.674193,72.654226 -14.108937,19.13107 -10.4976,19.13775 -10.258676,19.11953 l -0.369289,9.01916 79.141628,-67.485398 c 0,0 9.96926,-9.191722 20.31948,1.925164 10.35022,11.116886 18.01753,74.363014 21.08425,103.113624 2.26954,21.27713 9.57532,93.57409 12.28923,138.26719 0.95326,15.69823 1.34949,27.98516 0.7516,33.46576 -2.30005,21.08378 -1.92773,32.58488 -11.51128,42.16844 -9.5835,9.58355 -15.32544,10.73328 -29.89244,10.73328 -8.38064,0 -16.13497,-1.77448 -21.20287,-3.28323 l 2.03062,53.56103 1.26584,0.0675 83.84903,4.27221 c 0,0 -1.47838,-3.65644 -3.59973,-9.16418 -5.26699,-13.6745 -14.51813,-38.71636 -15.09785,-47.21865 -0.81318,-11.92675 -0.8179,-20.06401 4.06124,-26.56957 1.79594,-2.39458 4.11018,-3.92392 6.79073,-4.87874 -4.07224,-12.24487 -6.61892,-24.0867 -9.03232,-33.09661 -1.01538,-3.79092 -2.18036,-10.78351 -3.41515,-19.93702 C 186.21177,279.37911 178.80405,189.766 176.59452,159.14829 173.91113,121.96418 167.78289,79.093899 154.79823,56.403883 149.17315,46.574311 144.10855,43.658885 140.17512,43.508064 Z"
       style="fill:#6395a3;fill-opacity:1;stroke-width:3;stroke-linejoin:round;stroke-dasharray:3, 3;stroke-dashoffset:3;paint-order:stroke fill markers"
       id="path89" />
    <path
       d="m 208.7409,79.09984 0.54077,29.54954 185.94735,-0.54076 -0.26398,-27.650782 z"
       style="fill:#c2e7e7;fill-opacity:1;stroke-width:3;stroke-linejoin:round;stroke-dasharray:3, 3;stroke-dashoffset:3;paint-order:stroke fill markers"
       id="path90" />
    <path
       d="m 435.49854,50.446919 c 0,0 -1.70831,16.320082 -1.43725,21.334785 0.27072,5.014636 3.12505,90.259526 3.12505,120.347546 0,0.99506 0.005,2.06573 0.0135,3.19094 0.0871,12.0896 0.63123,31.39633 1.25268,51.64917 0.48473,11.04715 0.91006,22.18814 0.98891,31.69885 0.50971,16.43121 0.93733,31.20399 1.0681,40.57293 0.054,3.95902 0.054,6.94223 -0.0135,8.6895 -0.54212,13.82424 -5.6911,39.30506 5.41944,42.82775 5.39277,1.70987 8.66607,-7.42237 10.60143,-17.27348 -0.13975,-9.27544 -0.11612,-23.08503 -0.079,-38.97749 0.11072,-47.53082 0.32744,-113.63189 -3.46787,-132.39947 -2.43785,-12.05564 -4.73649,-35.93825 -6.98855,-59.94299 -2.91805,-31.105013 -5.76766,-62.420529 -8.79495,-68.540264 -0.52254,-1.055749 -1.08599,-2.122771 -1.68779,-3.177777 z"
       style="fill:#474e4e;fill-opacity:1;stroke-width:3;stroke-linejoin:round;stroke-dasharray:3, 3;stroke-dashoffset:3;paint-order:stroke fill markers"
       id="path91" />
    <path
       d="m 439.44204,278.66355 c 0.0608,7.63457 -0.0965,14.22135 -0.63259,18.86899 -0.71137,6.16571 -1.53427,13.72419 -2.46573,21.84902 -2.07997,18.14304 -4.70786,39.10414 -7.88516,53.66656 -0.0338,0.14245 -0.0608,0.2795 -0.0925,0.42195 0.81344,0.38886 1.6061,0.842 2.37344,1.35813 6.44777,4.33702 3.29646,6.77419 3.29646,12.73757 0,5.41728 -4.27667,48.19926 -12.57932,66.35134 -0.83695,1.82983 -1.71879,3.40191 -2.63722,4.66782 0,0 3.19054,-0.42599 7.56874,-1.12083 8.63435,-1.37062 21.88899,-3.77525 24.40705,-5.9336 3.7949,-3.25278 7.24097,-66.00561 5.97323,-89.43987 -0.11274,-2.0876 -0.19646,-5.01356 -0.25047,-8.61038 -1.93536,9.85118 -5.20866,18.98335 -10.60143,17.27348 -11.11054,-3.52269 -5.96156,-29.00351 -5.41944,-42.82775 0.0689,-1.7472 0.0682,-4.73048 0.0135,-8.68943 -0.13097,-9.36901 -0.55832,-24.14172 -1.0681,-40.573 z"
       style="fill:#7a9195;fill-opacity:1;stroke-width:3;stroke-linejoin:round;stroke-dasharray:3, 3;stroke-dashoffset:3;paint-order:stroke fill markers"
       id="path92" />
    <path
       d="m 428.36593,373.47007 c -4.73284,20.97677 -21.47933,44.51682 -36.7095,57.0817 -12.68761,10.46729 -27.48551,20.1486 -53.49514,23.82685 h -0.0135 c -5.42112,0.76619 -11.32293,1.26537 -17.80095,1.46365 -7.82251,0.23967 -15.01211,-0.20321 -21.73033,-1.23945 -25.5461,-3.94147 -44.26157,-16.48231 -64.90092,-32.8724 -15.1266,-12.0123 -23.66873,-29.70867 -29.29907,-46.63852 -2.68055,0.95489 -4.99479,2.48423 -6.79074,4.8788 -4.87914,6.5055 -4.87441,14.64276 -4.06123,26.56958 0.57992,8.50229 9.83085,33.54415 15.09785,47.21865 2.12135,5.50767 3.59972,9.16417 3.59972,9.16417 73.28985,-0.59208 146.26827,-1.24606 206.55685,-4.33817 0.91843,-1.26591 1.80027,-2.83799 2.63721,-4.66782 8.30266,-18.15208 12.57933,-60.93406 12.57933,-66.35134 0,-5.96338 3.15131,-8.40055 -3.29647,-12.73757 -0.76733,-0.51646 -1.55999,-0.96947 -2.37344,-1.35813 z"
       style="fill:#328da9;fill-opacity:1;stroke-width:3;stroke-linejoin:round;stroke-dasharray:3, 3;stroke-dashoffset:3;paint-order:stroke fill markers"
       id="path93" />
    <path
       d="M 123.29638,404.46153 121.78,255.36877 l 6.89618,-133.01923 -11.11567,-0.77794 -1.52954,-11.11574 7.27857,-17.24715 9.58613,-11.11567 0.2768,-3.362422 -24.93451,21.255662 c -4.40258,57.19755 -11.003538,143.78755 -11.76183,159.20635 -0.751608,15.28317 0.303127,81.65442 1.120829,125.80655 l 21.506201,17.94597 c 0,0 1.55742,0.66161 4.19308,1.51638 z"
       style="fill:#434846;fill-opacity:1;stroke-width:3;stroke-linejoin:round;stroke-dasharray:3, 3;stroke-dashoffset:3;paint-order:stroke fill markers"
       id="path94" />
    <path
       d="m 62.957774,356.10889 c -0.583977,-37.71442 -1.186857,-83.75147 -0.975747,-101.90051 0.383466,-32.9674 7.66096,-120.36072 7.66096,-120.36072 l 0.09249,-1.02854 -15.598921,13.30461 -4.509581,109.70655 3.006365,91.66823 z"
       style="fill:#313637;fill-opacity:1;stroke-width:3;stroke-linejoin:round;stroke-dasharray:3, 3;stroke-dashoffset:3;paint-order:stroke fill markers"
       id="path96" />
    <path
       d="m 293.53934,23.640038 c -39.43299,-0.0036 -78.66493,1.115361 -105.64531,2.360278 -5.96196,0.275447 -11.33225,0.553596 -15.96815,0.830664 0,0 9.09829,1.728097 9.09829,12.07832 0,2.558357 0.50364,12.1646 1.34497,25.962984 0,0 4.43133,-0.378741 11.64314,-0.962582 l 4.04807,-29.734189 -4.03491,29.734189 c 26.14263,-2.116155 88.91159,-6.976729 111.20977,-6.764337 21.14953,0.201185 72.1834,4.726631 97.00854,7.04127 8.57447,0.799406 14.01908,1.343888 14.02975,1.344969 l -3.38875,-35.812878 c -0.33958,-0.05401 -0.68335,-0.11612 -1.02847,-0.171479 -3.53289,-0.566424 -7.36445,-1.083159 -11.4454,-1.555943 -27.8045,-3.221457 -67.43861,-4.347688 -106.87154,-4.351333 z"
       style="fill:#293d56;fill-opacity:1;stroke-width:3;stroke-linejoin:round;stroke-dasharray:3, 3;stroke-dashoffset:3;paint-order:stroke fill markers"
       id="path97" />
    <path
       d="m 305.23521,57.145365 c -22.29818,-0.212662 -85.06714,4.648182 -111.20977,6.764337 l -2.47896,18.183338 2.4658,-18.183338 c -7.21181,0.583976 -11.64314,0.962582 -11.64314,0.962582 2.56348,42.025036 8.21887,122.924136 12.05192,161.935856 2.02231,20.58317 6.81457,60.85459 13.19902,95.61084 0,0 4.72163,0.86307 12.73757,2.07018 l -11.1684,-31.55383 11.18163,31.55383 c 20.2097,3.04303 61.3153,8.29213 100.31817,7.51595 35.80241,-0.71252 69.27324,-5.76341 88.01578,-9.13785 9.77968,-1.7607 15.54613,-3.05909 15.54613,-3.05909 1.98896,-41.10154 2.17252,-131.30106 1.51638,-157.2153 -0.46989,-18.57112 -5.59767,-64.390182 -9.49384,-97.061266 -0.0135,-0.0011 -5.45528,-0.545495 -14.02975,-1.344969 -24.82514,-2.314639 -75.85901,-6.839883 -97.00854,-7.04127 z m -96.49431,21.954475 186.22421,1.358133 0.26397,27.650847 -185.94734,0.54077 z"
       style="fill:#6f9eae;fill-opacity:1;stroke-width:3;stroke-linejoin:round;stroke-dasharray:3, 3;stroke-dashoffset:3;paint-order:stroke fill markers"
       id="path98" />
    <path
       d="m 424.25096,319.80817 c 0,0 -5.76645,1.29839 -15.54613,3.05909 -18.74254,3.37444 -52.21337,8.42533 -88.01578,9.13785 -39.00287,0.77618 -80.10847,-4.47292 -100.31817,-7.51595 l 19.17225,54.1544 c 18.17578,5.1768 46.82951,12.54368 80.86899,11.64314 30.28285,-0.8011 58.01039,-7.40759 75.62109,-12.67162 12.18216,-3.64138 19.52824,-6.64571 19.52824,-6.64571 0,0 0.14988,-0.007 0.43545,-0.0135 3.64388,-11.40502 5.66451,-23.47281 7.094,-35.0876 0.4422,-3.5954 0.82499,-9.12974 1.16033,-16.06043 z m -184.70783,58.83539 -19.18548,-54.1544 c -8.01594,-1.20711 -12.73757,-2.07018 -12.73757,-2.07018 3.85795,21.00202 8.30232,39.99172 13.06723,51.39857 3.17777,0.15798 9.67618,2.21148 18.85582,4.82601 z"
       style="fill:#374d61;fill-opacity:1;stroke-width:3;stroke-linejoin:round;stroke-dasharray:3, 3;stroke-dashoffset:3;paint-order:stroke fill markers"
       id="path99" />
    <path
       d="m 415.99663,370.9562 c -0.28557,0.004 -0.43545,0.0135 -0.43545,0.0135 0,0 -7.34608,3.00427 -19.52824,6.64572 -17.6107,5.26403 -45.33824,11.87045 -75.62109,12.67162 -34.03948,0.90047 -62.69321,-6.46635 -80.86899,-11.64314 -9.17964,-2.61453 -15.67805,-4.6679 -18.85582,-4.82601 12.65021,30.28393 49.82743,64.5863 98.51176,63.81964 48.68439,-0.76666 57.50972,-13.80048 76.29351,-31.81753 10.02792,-9.61867 16.33068,-21.80129 20.50405,-34.86346 z"
       style="fill:#1d282f;fill-opacity:1;stroke-width:3;stroke-linejoin:round;stroke-dasharray:3, 3;stroke-dashoffset:3;paint-order:stroke fill markers"
       id="path100" />
    <path
       d="m 171.92683,26.826389 c -11.18204,0.669041 -18.1269,1.30777 -19.014,1.780082 -1.51908,0.808655 -8.72556,7.381057 -18.47344,16.719683 3.79672,-2.686764 11.35878,-4.65122 20.35897,11.076109 12.9846,22.690016 19.11291,65.560297 21.7963,102.744407 2.20952,30.61771 9.61724,120.23089 15.37471,162.9116 1.23479,9.15358 2.39977,16.14617 3.41515,19.93709 2.41341,9.00991 4.96009,20.85174 9.03233,33.09654 5.63034,16.92985 14.17246,34.62622 29.29907,46.63852 26.06722,20.70044 49.06374,35.26191 86.63125,34.11185 37.56744,-1.14999 55.97559,-12.64029 71.30926,-25.2905 15.23017,-12.56488 31.97666,-36.10493 36.7095,-57.0817 0.0338,-0.14245 0.0608,-0.2795 0.0925,-0.42195 3.17731,-14.56242 5.8052,-35.52352 7.88517,-53.66656 0.93146,-8.12483 1.75436,-15.68331 2.46573,-21.84902 2.30006,-19.93378 -2.3085,-75.52915 -1.9251,-96.61299 0.027,-1.40877 0.13773,-3.2943 0.31663,-5.60395 -0.007,-1.12521 -0.0135,-2.19595 -0.0135,-3.19101 0,-15.23429 -0.73243,-44.6166 -1.49005,-70.55765 l -1.31857,-41.443217 v -0.0135 c -0.15866,-4.528484 -0.27208,-7.512435 -0.31663,-8.333513 -0.2714,-5.014636 1.43725,-21.334718 1.43725,-21.334718 -5.57869,-9.780018 -13.97702,-19.053631 -13.97702,-19.053631 -2.61837,-0.599504 -5.50983,-1.156206 -8.63677,-1.674629 l 3.38875,35.812878 c 3.89617,32.671151 9.02375,78.49021 9.49384,97.06127 0.65621,25.91431 0.47258,116.11375 -1.51638,157.21529 -0.33554,6.93069 -0.71786,12.4651 -1.16033,16.06044 -1.42949,11.61478 -3.45012,23.68257 -7.094,35.08766 -4.17337,13.06217 -10.47613,25.2448 -20.50405,34.86346 -18.78379,18.01706 -27.60912,31.05087 -76.29351,31.81754 -48.68433,0.76666 -85.86155,-33.53571 -98.51176,-63.81972 -4.76491,-11.40678 -9.20928,-30.39654 -13.06723,-51.39856 -6.38445,-34.75619 -11.17677,-75.02767 -13.19909,-95.61085 -3.83304,-39.01172 -9.48836,-119.91082 -12.05185,-161.93585 -0.84167,-13.798384 -1.34497,-23.404627 -1.34497,-25.962984 0,-10.348737 -9.09565,-12.07778 -9.09829,-12.078253 z"
       style="fill:#76f4ff;stroke-width:3;stroke-linejoin:round;stroke-dasharray:3, 3;stroke-dashoffset:3;paint-order:stroke fill markers"
       id="path101"
       sodipodi:nodetypes="sscssssssssccssccsccscccccsssssssssssss" />
    <path
       d="M 97.597095,384.99918 C 96.779663,340.84705 95.724657,274.4758 96.476265,259.19263 97.234557,243.77383 103.83552,157.197 108.23809,99.999445 l -38.502747,32.819675 -0.09249,1.02854 c 0,0 -7.277629,87.39332 -7.66096,120.36072 -0.211312,18.14904 0.391568,64.18609 0.975747,101.90051 z"
       style="fill:#5e5e5b;fill-opacity:1;stroke-width:3;stroke-linejoin:round;stroke-dasharray:3, 3;stroke-dashoffset:3;paint-order:stroke fill markers"
       id="path102" />
    <path
       id="path103"
       style="fill:#656661;stroke-width:3;stroke-linejoin:round;stroke-dasharray:3, 3;stroke-dashoffset:3;paint-order:stroke fill markers"
       d="m 142.61466,75.060343 c -5.44759,-0.02025 -9.33559,3.573329 -9.33566,3.573329 l -0.10532,0.09249 -0.2768,3.362421 c 5.50383,-2.573479 11.09252,-4.793467 17.27355,-4.522745 -2.67744,-1.836927 -5.25714,-2.496381 -7.5555,-2.50536 z m 19.88429,28.745207 -1.3318,4.83924 -11.12884,12.26283 -21.36118,1.43726 -6.89619,133.01923 1.51638,149.09276 h 0.0135 c 0.55698,0.18025 1.15648,0.37334 1.80648,0.5671 5.06791,1.50875 12.82224,3.28329 21.20287,3.28329 14.56701,0 20.30895,-1.14979 29.89244,-10.73328 9.58356,-9.58356 9.21123,-21.08472 11.51129,-42.1685 0.59815,-5.48053 0.20186,-17.76753 -0.75161,-33.46576 -2.7139,-44.69303 -10.01969,-116.99006 -12.28923,-138.26719 -2.10299,-19.71504 -6.37263,-55.64235 -12.18377,-79.86691 z" />
    <path
       d="m 162.49895,103.79239 c -2.66259,-11.096634 -5.64884,-19.741038 -8.90047,-23.233554 -1.15202,-1.237355 -2.29824,-2.217828 -3.42832,-2.9932 -6.18103,-0.270722 -11.76972,1.949266 -17.27355,4.522746 l -9.58612,11.115738 -7.27858,17.24708 1.52955,11.11574 11.11567,0.77794 21.36111,-1.43726 11.12891,-12.26283 z"
       style="fill:#313637;stroke-width:3;stroke-linejoin:round;stroke-dasharray:3, 3;stroke-dashoffset:3;paint-order:stroke fill markers"
       id="path104" />
    <path
       d="m 435.45702,49.993645 c 0,0 -1.70831,16.320082 -1.43725,21.334785 0.27072,5.014704 3.12505,90.25953 3.12505,120.34755 0,0.99512 0.005,2.06579 0.0135,3.19101 0.0871,12.08953 0.63123,31.39626 1.25268,51.6491 0.48473,11.04715 0.91006,22.1882 0.98891,31.69885 0.50972,16.43127 0.93706,31.20399 1.06804,40.57299 0.054,3.95903 0.054,6.94223 -0.0135,8.6895 -0.20456,5.20968 -1.01483,12.21335 -1.41086,18.93488 -0.0405,0.7296 -0.0473,1.43902 -0.079,2.16254 -0.0135,0.31798 -0.027,0.63326 -0.0405,0.94935 0.0337,0.81385 0.20523,5.13028 0.54077,11.48489 0.53402,10.11609 1.3846,23.32712 2.29432,27.13654 1.53339,6.42097 3.53876,9.78272 5.55128,11.60358 2.01253,1.82092 6.28872,4.09641 8.99277,1.80648 0.69517,-15.3783 0.92086,-30.69131 0.42195,-39.91368 -0.11275,-2.08759 -0.19646,-5.01355 -0.25047,-8.61038 -0.0338,-2.00509 -0.0473,-4.21516 -0.0675,-6.61932 -0.0608,-8.71704 -0.0405,-19.90117 -0.0135,-32.35816 0.11072,-47.53082 0.32743,-113.63189 -3.46787,-132.39941 -2.43785,-12.0557 -4.73649,-35.93831 -6.98855,-59.94305 -2.91805,-31.104949 -5.76766,-62.420465 -8.79495,-68.540201 -0.52254,-1.055748 -1.08599,-2.122771 -1.68779,-3.177844 z"
       style="fill:#474e4e;fill-opacity:1;stroke-width:3;stroke-linejoin:round;stroke-dasharray:3, 3;stroke-dashoffset:3;paint-order:stroke fill markers"
       id="path105" />
    <path
       d="m 434.37866,80.123723 1.31857,41.443217 5.34031,2.59758 15.04513,-7.52911 0.61975,-8.94003 -5.63034,-12.539766 z"
       style="fill:#313637;stroke-width:3;stroke-linejoin:round;stroke-dasharray:3, 3;stroke-dashoffset:3;paint-order:stroke fill markers"
       id="path106" />
  </g>
</svg>
